<?xml version="1.0" standalone="no"?>
<!DOCTYPE svg PUBLIC "-//W3C//DTD SVG 20010904//EN"
 "http://www.w3.org/TR/2001/REC-SVG-20010904/DTD/svg10.dtd">
<svg version="1.0" xmlns="http://www.w3.org/2000/svg"
 width="24" height="24" viewBox="0 0 888.000000 888.000000"
 preserveAspectRatio="xMidYMid meet">

<g transform="translate(0.000000,888.000000) scale(0.100000,-0.100000)"
fill="currentColor" stroke="none">
<path d="M4555 7244 c-440 -25 -771 -108 -1150 -289 -178 -84 -334 -182 -570
-356 -38 -28 -60 -41 -48 -28 l22 25 -19 32 c-13 21 -17 39 -12 54 10 31 8 67
-2 70 -17 4 -79 -48 -214 -182 -159 -156 -240 -253 -361 -429 -153 -223 -292
-483 -346 -646 -7 -22 -24 -71 -38 -110 -38 -108 -58 -174 -74 -240 -41 -176
-55 -249 -67 -340 -8 -55 -16 -107 -19 -115 -4 -8 -11 -76 -17 -150 -23 -298
-23 -298 -49 -344 -12 -22 -13 -30 -3 -33 6 -3 12 -9 12 -15 0 -14 -26 -38
-34 -31 -11 11 -6 -24 10 -68 8 -24 13 -58 11 -75 -3 -18 0 -37 6 -44 10 -10
7 -12 -10 -7 -29 7 -137 -37 -141 -57 -5 -24 -35 -19 -62 9 -12 13 -27 22 -31
19 -13 -7 -11 -51 2 -77 12 -22 12 -22 -10 -3 -31 28 -25 7 9 -34 29 -34 30
-34 24 -9 -7 32 15 51 23 20 10 -38 28 -24 24 19 -1 10 5 7 19 -9 37 -43 16
-80 -30 -51 -27 17 -29 -12 -4 -77 31 -81 31 -117 0 -148 -23 -23 -23 -24 -5
-41 10 -9 19 -25 19 -36 0 -13 7 -18 29 -18 23 0 43 -16 108 -87 44 -49 95
-104 112 -123 131 -142 221 -326 208 -425 -4 -26 -2 -46 5 -53 9 -9 9 -15 -1
-24 -10 -11 -11 -9 -6 7 6 19 6 19 -6 1 -8 -14 -9 -24 -1 -36 6 -9 14 -53 17
-96 10 -107 55 -203 103 -219 46 -15 140 -118 148 -162 4 -19 18 -45 32 -59
15 -13 33 -38 42 -56 9 -20 23 -33 35 -34 66 -3 178 -105 228 -207 35 -73 38
-76 89 -92 71 -23 112 -56 139 -110 12 -25 27 -45 32 -45 5 0 41 -33 81 -74
62 -62 80 -74 117 -80 24 -4 64 -20 89 -35 25 -16 68 -36 95 -44 71 -23 233
-64 280 -72 39 -7 140 -37 180 -54 33 -15 166 -58 280 -91 33 -9 67 -19 75
-23 29 -10 105 -29 185 -44 44 -8 89 -19 100 -23 28 -11 298 -57 420 -72 55
-6 206 -12 335 -11 190 0 262 4 375 21 415 64 828 230 1241 499 177 116 261
162 407 223 74 31 85 38 65 44 -186 53 -256 59 -393 35 -60 -11 -123 -24 -140
-30 -34 -11 -77 -70 -120 -164 l-27 -60 -17 60 c-23 81 -86 203 -179 349 -87
135 -242 348 -269 368 -10 7 -36 35 -58 62 -21 27 -50 61 -63 75 -13 14 -40
46 -61 70 -20 25 -43 52 -51 61 -8 9 -31 38 -50 66 -19 27 -40 56 -47 64 -6 8
-35 46 -64 84 -28 38 -67 85 -86 105 -19 20 -42 47 -51 61 -10 14 -52 74 -94
135 -110 156 -114 162 -160 240 -23 39 -45 72 -50 73 -4 2 -6 7 -3 12 3 5 -1
14 -8 22 -18 18 -77 105 -77 113 0 4 -13 25 -29 48 -25 38 -62 111 -129 260
-13 27 -19 53 -16 59 5 7 2 8 -6 3 -10 -6 -12 -4 -7 7 3 9 -11 51 -32 94 -21
44 -51 107 -66 142 -15 34 -32 62 -37 62 -5 0 -6 4 -3 10 7 12 -59 168 -145
340 -132 263 -279 633 -265 667 2 8 0 11 -5 8 -6 -3 -10 1 -10 9 0 9 6 16 14
16 7 0 19 6 25 14 7 8 28 13 51 12 27 -1 40 3 40 12 0 9 10 12 34 8 l35 -6
-10 33 c-44 146 -102 367 -116 442 -25 134 -22 365 6 470 37 139 117 270 204
335 l42 32 -35 -7 c-54 -11 -188 -85 -234 -130 -54 -52 -88 -137 -115 -286
-22 -122 -40 -177 -65 -198 -17 -14 -39 -86 -56 -181 -6 -36 -22 -100 -36
-144 -35 -112 -42 -148 -54 -277 -14 -153 -15 -155 -45 -123 -40 43 -56 142
-55 338 1 222 2 212 -9 201 -5 -6 -16 -50 -26 -99 -17 -86 -17 -95 2 -251 2
-16 3 -54 3 -83 1 -55 20 -178 46 -293 14 -61 17 -66 39 -63 18 1 25 -3 25
-14 0 -10 7 -30 15 -46 8 -15 12 -32 9 -37 -3 -5 -1 -9 4 -9 12 0 131 -395
132 -435 0 -17 -2 -17 -13 -5 -18 20 -127 198 -127 208 0 11 -49 68 -50 57 0
-5 12 -30 26 -55 23 -40 23 -42 4 -25 l-21 19 11 -29 10 -30 -25 30 c-51 60
-189 275 -177 275 4 0 3 4 -3 8 -13 9 -65 108 -65 123 0 6 -6 25 -14 42 -16
36 -30 88 -28 100 1 4 -3 18 -9 30 -7 12 -8 19 -4 15 5 -4 14 -3 22 3 7 6 22
9 33 6 10 -3 18 -2 17 2 -2 7 7 11 29 11 9 0 12 -5 8 -12 -4 -7 3 -3 15 9 17
19 20 27 11 43 -7 13 -7 20 -1 20 6 0 8 9 3 23 -15 46 -1 162 27 235 11 27 22
70 26 98 4 27 10 58 12 69 3 11 6 34 7 50 5 58 18 94 36 100 25 8 59 100 66
179 5 58 5 60 -11 41 -17 -20 -17 -20 -10 5 24 82 73 165 151 255 70 82 151
144 234 181 39 17 68 33 65 36 -12 12 155 51 253 59 209 16 375 -29 569 -155
38 -24 77 -53 88 -63 11 -11 28 -24 38 -29 24 -14 198 -184 241 -238 20 -24
35 -50 34 -57 -2 -8 2 -13 9 -12 15 3 63 -64 137 -190 105 -178 183 -369 190
-465 2 -31 5 -57 5 -57 1 0 4 -69 7 -153 3 -96 0 -183 -8 -235 -6 -45 -12 -96
-12 -114 -1 -17 -4 -29 -8 -26 -5 2 -8 0 -8 -6 0 -5 4 -12 9 -16 12 -7 -17
-94 -37 -114 -7 -8 -18 -25 -23 -38 -4 -12 -14 -23 -21 -23 -7 0 -19 -12 -25
-27 -7 -16 -44 -77 -83 -137 -38 -61 -70 -116 -70 -124 0 -8 -11 -23 -25 -34
-14 -11 -25 -27 -25 -36 0 -35 -150 -205 -292 -333 l-87 -79 121 -157 c205
-267 235 -301 468 -532 269 -267 573 -546 806 -741 23 -19 86 -73 140 -120 55
-47 122 -103 149 -125 28 -22 105 -88 172 -147 66 -60 123 -108 125 -108 1 0
2 30 0 67 -4 89 20 200 63 291 19 40 80 148 136 240 187 306 311 589 378 863
61 252 75 381 75 719 0 238 -4 334 -18 435 -40 294 -113 570 -213 810 -61 146
-230 475 -245 475 -4 0 -8 5 -8 10 0 12 -52 94 -62 98 -5 2 -8 8 -8 13 0 8
-40 75 -63 104 -4 6 -42 55 -84 110 -42 55 -90 115 -107 134 -71 77 -223 224
-212 203 10 -16 -12 -44 -28 -35 -6 3 -8 3 -4 -1 8 -10 -22 -46 -39 -46 -7 0
-13 -8 -13 -17 0 -15 -2 -16 -9 -3 -6 8 -8 17 -5 21 2 4 -5 9 -16 12 -11 3
-23 0 -27 -5 -3 -7 -1 -8 5 -4 7 4 12 2 12 -3 0 -16 -26 -13 -44 5 -9 9 -27
17 -40 18 -13 2 -61 35 -107 73 -401 335 -987 586 -1504 642 -103 12 -372 20
-460 15z m345 -284 c610 -53 1177 -317 1619 -753 120 -118 300 -338 394 -482
81 -124 211 -380 201 -396 -4 -7 -3 -9 3 -6 11 7 86 -182 86 -213 0 -41 -4
-49 -18 -44 -10 4 -15 0 -15 -12 0 -15 -2 -16 -9 -5 -5 8 -7 21 -3 29 4 11 2
13 -8 7 -10 -6 -12 -4 -7 8 3 9 2 17 -2 19 -5 2 -30 55 -56 118 -117 287 -270
525 -507 787 -412 458 -965 756 -1563 844 -313 46 -761 9 -1066 -87 -306 -97
-652 -290 -905 -507 -60 -51 -115 -101 -123 -110 -12 -16 -16 -16 -37 -2 -15
10 -25 11 -29 4 -4 -6 -14 -8 -22 -5 -11 5 -13 2 -9 -11 6 -14 5 -16 -5 -6
-10 10 -9 18 7 40 11 16 23 35 26 44 11 29 230 209 362 297 496 331 1112 492
1686 442z m-630 -365 c-14 -8 -29 -14 -35 -14 -5 0 1 6 15 14 14 8 30 14 35
14 6 0 -1 -6 -15 -14z m-15 -1275 c-3 -5 -12 -10 -18 -10 -7 0 -6 4 3 10 19
12 23 12 15 0z m-2085 -290 c0 -5 -4 -10 -9 -10 -6 0 -13 5 -16 10 -3 6 1 10
9 10 9 0 16 -4 16 -10z m-340 -136 c0 -8 -4 -12 -10 -9 -5 3 -10 10 -10 16 0
5 5 9 10 9 6 0 10 -7 10 -16z m-10 -130 c0 -43 -33 -50 -72 -16 -28 24 -22 30
27 30 29 -1 45 -6 45 -14z m37 -115 c17 -17 -3 -58 -29 -59 -12 0 -30 41 -24
56 6 17 37 19 53 3z m-87 -64 c0 -7 7 -15 15 -19 8 -3 15 -13 15 -23 0 -10 9
-24 20 -31 26 -16 27 -42 0 -35 -13 4 -22 -1 -27 -13 -6 -16 -8 -14 -13 11 -3
18 -11 30 -21 30 -9 0 -24 8 -33 18 -15 14 -16 20 -6 32 9 11 9 15 1 15 -15 0
-14 27 2 33 19 6 47 -4 47 -18z m464 -11 c4 -12 0 -28 -10 -40 -15 -18 -15
-18 -5 3 9 18 7 24 -11 38 -19 13 -21 17 -8 25 17 10 25 4 34 -26z m-64 -28
c-7 -10 -8 -16 0 -21 16 -10 12 -25 -5 -19 -11 5 -13 2 -9 -10 7 -19 -3 -21
-19 -3 -19 20 -19 37 0 37 9 0 13 3 10 7 -4 3 1 15 10 25 20 22 32 6 13 -16z
m-258 -101 c-6 -34 -12 -32 -12 6 0 16 4 28 9 25 4 -3 6 -17 3 -31z m51 16
c-4 -3 -11 -10 -15 -15 -5 -5 -8 0 -8 12 0 15 4 20 16 15 9 -3 12 -9 7 -12z
m17 -72 c0 -15 -6 -20 -22 -17 -28 4 -36 35 -11 40 25 6 33 0 33 -23z m-234
-25 c-3 -9 -6 -20 -6 -25 0 -5 -7 -9 -15 -9 -15 0 -21 31 -8 43 13 14 35 7 29
-9z m446 -86 c-26 -24 -53 -50 -59 -58 -9 -10 -8 -4 1 20 10 23 20 34 31 32
10 -2 19 5 22 17 4 17 16 25 45 30 4 0 -14 -18 -40 -41z m-392 -18 c0 -13 -37
-13 -45 0 -3 6 -3 15 0 20 7 12 45 -5 45 -20z m-65 10 c3 -6 -5 -10 -19 -10
-14 0 -28 5 -31 10 -3 6 5 10 19 10 14 0 28 -4 31 -10z m165 -25 c0 -8 -4 -15
-9 -15 -13 0 -22 16 -14 24 11 11 23 6 23 -9z m445 -25 c3 -5 -1 -10 -11 -10
-12 0 -14 -3 -5 -13 14 -17 -4 -37 -34 -37 -31 0 -38 11 -17 26 16 12 15 13
-5 14 -12 0 -26 -6 -30 -14 -8 -13 -53 -41 -53 -32 0 21 28 57 49 65 35 13 98
13 106 1z m2339 -6 c3 -8 2 -12 -4 -9 -6 3 -10 10 -10 16 0 14 7 11 14 -7z
m2745 -181 c1 -110 -8 -161 -20 -108 -4 20 -7 4 -8 -46 0 -42 -10 -131 -21
-197 -44 -258 -238 -725 -407 -979 -30 -46 -56 -83 -59 -83 -6 0 21 53 51 100
64 101 210 390 250 495 67 173 144 410 154 480 5 33 15 134 20 225 6 91 14
194 18 230 6 64 6 65 14 25 4 -22 8 -86 8 -142z m-5574 158 c3 -5 1 -12 -5
-16 -5 -3 -10 1 -10 9 0 18 6 21 15 7z m515 -11 c0 -5 -4 -10 -10 -10 -5 0
-10 5 -10 10 0 6 5 10 10 10 6 0 10 -4 10 -10z m-45 -41 c11 -16 1 -19 -13 -3
-7 8 -8 14 -3 14 5 0 13 -5 16 -11z m-321 -8 c10 -16 -5 -41 -25 -41 -20 0
-23 8 -13 34 7 17 29 21 38 7z m-101 -39 c-2 -15 3 -22 15 -23 60 -2 107 -75
63 -99 -17 -8 -25 -6 -43 12 -14 14 -18 23 -10 26 17 5 4 22 -17 22 -10 0 -23
11 -29 25 -8 17 -8 25 -1 25 6 0 7 5 4 10 -3 6 -15 10 -26 10 -11 0 -18 4 -15
8 2 4 17 8 33 7 23 0 28 -4 26 -23z m334 -34 c-3 -8 -6 -5 -6 6 -1 11 2 17 5
13 3 -3 4 -12 1 -19z m-387 -43 c16 -20 6 -45 -19 -45 -29 0 -46 36 -24 49 24
14 28 13 43 -4z m-85 -39 c49 -21 45 -38 -7 -32 -37 5 -57 18 -58 39 0 11 27
8 65 -7z m475 -68 c-12 -35 -27 -67 -33 -73 -7 -7 -8 -6 -3 3 4 6 3 12 -3 12
-5 0 -11 -6 -14 -12 -2 -7 -2 -1 0 14 7 44 59 135 71 123 3 -2 -5 -33 -18 -67z
m-84 -6 c-11 -10 -15 4 -8 28 l7 25 3 -23 c2 -13 1 -26 -2 -30z m-595 -45
c-16 -16 -26 0 -10 19 9 11 15 12 17 4 2 -6 -1 -17 -7 -23z m242 -13 c23 -26
37 -51 37 -68 l0 -26 -35 36 c-19 19 -35 40 -35 44 0 5 -7 16 -16 24 -14 15
-11 41 5 34 4 -2 24 -22 44 -44z m190 -36 c-13 -12 -26 -18 -30 -14 -4 4 1 14
11 22 31 22 43 17 19 -8z m-423 -49 c0 -4 -5 -11 -10 -14 -11 -7 -31 35 -22
49 5 9 32 -21 32 -35z m2866 -106 c32 -49 58 -96 58 -105 0 -9 4 -14 9 -11 4
3 14 -3 21 -13 12 -15 10 -21 -14 -40 -35 -30 -94 -30 -78 -1 8 17 7 18 -14
12 -20 -7 -21 -6 -9 9 13 16 6 21 -21 17 -4 0 -4 7 -1 16 4 11 3 14 -5 9 -7
-4 -12 -2 -12 4 0 6 -11 15 -25 22 -13 6 -22 14 -20 18 3 5 -9 13 -25 19 -17
5 -30 15 -30 21 0 13 89 110 101 110 4 0 34 -39 65 -87z m-2872 61 c3 -8 2
-12 -4 -9 -6 3 -10 10 -10 16 0 14 7 11 14 -7z m731 -6 c5 4 5 -1 2 -11 -4
-10 -7 -23 -7 -28 0 -5 -4 -9 -10 -9 -5 0 -7 7 -4 15 4 8 0 23 -7 33 -12 15
-12 16 2 5 9 -7 20 -9 24 -5z m-864 -24 c5 -15 8 -29 5 -31 -2 -2 -8 10 -14
26 -13 38 -5 41 9 5z m83 -10 c4 -11 1 -14 -11 -12 -9 2 -18 9 -21 16 -6 18
25 15 32 -4z m492 -16 c5 -7 3 -8 -6 -3 -7 4 -16 2 -21 -6 -4 -7 -11 -10 -14
-7 -10 10 4 28 20 28 8 0 17 -5 21 -12z m-422 -43 c18 -19 43 -56 56 -83 13
-26 32 -56 43 -66 16 -16 17 -21 6 -24 -8 -3 -24 -13 -36 -24 l-21 -20 -42 38
c-86 78 -119 214 -53 214 9 0 30 -16 47 -35z m616 -132 c0 -18 -16 -75 -36
-128 -33 -88 -35 -102 -33 -190 2 -52 0 -98 -4 -101 -30 -30 -44 210 -15 244
9 9 15 24 15 32 0 8 8 50 18 94 11 48 15 98 12 130 l-5 51 24 -50 c13 -27 24
-65 24 -82z m-300 22 c0 -8 -4 -15 -10 -15 -5 0 -7 7 -4 15 4 8 8 15 10 15 2
0 4 -7 4 -15z m-3 -47 c-3 -8 -6 -5 -6 6 -1 11 2 17 5 13 3 -3 4 -12 1 -19z
m149 -101 c-3 -49 -7 -92 -9 -94 -3 -2 -18 11 -35 28 l-31 32 29 34 c21 24 30
44 30 69 0 22 4 33 11 29 6 -5 8 -39 5 -98z m2549 46 c-6 -27 -6 -27 13 -10
19 17 21 17 52 -23 l32 -40 -97 -161 c-175 -289 -269 -509 -350 -816 -61 -232
-83 -304 -84 -271 -1 15 -6 30 -12 33 -34 22 65 484 151 700 35 88 115 249
177 357 43 75 61 120 68 165 3 23 42 93 52 93 3 0 2 -12 -2 -27z m-2606 -124
c21 -20 38 -28 50 -24 15 5 18 0 17 -31 -1 -42 -23 -58 -28 -22 -2 15 -11 24
-26 26 -16 3 -28 15 -38 37 -23 56 -20 57 25 14z m96 -244 l7 -30 -22 32 c-11
17 -23 49 -26 70 l-4 38 19 -40 c11 -22 22 -53 26 -70z m254 -17 c-1 -22 -3
-26 -6 -13 -3 11 -10 26 -15 33 -8 9 -6 12 6 12 12 0 16 -9 15 -32z m-203 -90
c10 -23 30 -55 42 -70 26 -31 16 -38 -17 -10 -22 18 -67 122 -52 122 4 0 17
-19 27 -42z m105 -39 l24 -20 -30 17 c-39 24 -40 24 -28 24 6 0 21 -9 34 -21z
m-229 -228 c18 -22 50 -81 72 -131 34 -82 37 -94 23 -107 -8 -9 -34 -16 -57
-17 -47 -1 -65 15 -79 74 -14 53 -31 201 -25 211 11 18 33 8 66 -30z m988
-436 l25 -28 -25 14 c-32 18 -100 80 -100 92 0 11 65 -41 100 -78z m-35 75 c3
-5 1 -10 -4 -10 -6 0 -11 5 -11 10 0 6 2 10 4 10 3 0 8 -4 11 -10z m610 -459
c3 -6 -2 -14 -12 -19 -14 -8 -12 -12 14 -25 17 -9 62 -23 101 -32 77 -18 102
-38 171 -139 30 -43 31 -46 10 -33 -13 8 -73 34 -134 58 -108 42 -243 113
-257 133 -8 12 28 35 55 36 10 0 16 4 13 9 -4 5 0 12 6 14 20 8 26 8 33 -2z
m1949 -25 c-3 -8 -1 -23 5 -33 6 -10 11 -13 11 -5 0 10 3 10 14 0 8 -7 12 -16
10 -20 -7 -11 59 -1 100 16 38 16 75 22 63 10 -12 -13 -146 -56 -261 -84 -65
-16 -133 -38 -151 -48 -36 -22 -90 -36 -230 -58 -168 -26 -258 -29 -287 -10
-24 16 -158 37 -210 33 -23 -2 -25 -4 -14 -17 19 -22 26 -61 15 -82 -7 -13
-21 -18 -53 -18 -34 0 -50 7 -82 33 -35 31 -49 35 -139 47 -178 22 -180 22
-179 50 1 14 2 39 3 56 l1 31 88 -18 c77 -16 371 -49 437 -49 21 0 24 3 16 18
-10 19 -21 17 254 28 135 5 145 6 145 16 0 4 5 8 11 8 5 0 7 -4 4 -10 -3 -5
-1 -10 4 -10 6 0 11 5 11 11 0 7 10 9 25 7 13 -3 22 -2 20 2 -2 4 9 7 26 8 17
0 36 5 43 11 9 7 16 7 26 -2 10 -9 11 -9 6 1 -8 14 10 17 19 2 4 -6 12 -5 21
4 8 9 21 13 29 10 8 -3 22 2 32 11 16 17 17 16 24 -1 6 -17 8 -16 19 7 14 31
79 57 91 37 4 -7 5 -16 3 -20 -3 -4 0 -8 5 -8 6 0 11 11 11 25 0 14 4 25 10
25 5 0 7 -6 4 -14z m-859 -146 c3 -5 -1 -10 -10 -10 -9 0 -13 5 -10 10 3 6 8
10 10 10 2 0 7 -4 10 -10z m-919 -38 c63 -24 95 -41 74 -42 -14 0 -141 58
-130 59 3 1 28 -7 56 -17z m-131 -32 c3 -5 2 -10 -4 -10 -5 0 -13 5 -16 10 -3
6 -2 10 4 10 5 0 13 -4 16 -10z m109 -35 c72 -19 156 -55 156 -66 0 -5 -2 -9
-5 -9 -8 0 -167 57 -207 74 -39 17 -53 32 -20 22 10 -3 44 -13 76 -21z m1249
-22 c-7 -2 -19 -2 -25 0 -7 3 -2 5 12 5 14 0 19 -2 13 -5z m-66 -9 c-3 -3 -12
-4 -19 -1 -8 3 -5 6 6 6 11 1 17 -2 13 -5z m-1943 -46 c-8 -12 -34 11 -34 30
0 13 3 12 20 -3 11 -10 17 -22 14 -27z m1576 -23 c0 -12 -19 -12 -23 0 -4 9
-1 12 9 8 7 -3 14 -7 14 -8z"/>
<path d="M1950 4028 c0 -9 5 -20 11 -23 17 -11 18 -2 3 19 -12 17 -14 17 -14
4z"/>
<path d="M4639 6637 c-87 -33 -172 -111 -230 -212 -73 -126 -107 -321 -88
-506 14 -144 111 -524 181 -711 13 -36 18 -35 44 5 56 86 479 590 513 611 9 6
111 -88 111 -102 0 -5 6 -15 14 -21 16 -14 83 -121 88 -141 2 -8 8 -20 15 -27
6 -7 10 -21 8 -31 -2 -10 -54 -85 -116 -168 -62 -82 -179 -249 -260 -371 -81
-122 -149 -220 -151 -217 -3 2 -4 -11 -3 -29 1 -31 76 -182 141 -282 17 -27
69 -111 114 -185 45 -74 93 -150 107 -167 l24 -33 96 83 c54 45 137 121 185
169 84 83 87 88 76 113 -9 21 -13 23 -20 11 -5 -8 -15 -13 -22 -10 -7 3 -20
-1 -27 -8 -8 -7 -29 -14 -48 -15 -18 -1 -38 -7 -42 -15 -5 -7 -9 -8 -9 -2 0
13 -48 7 -67 -9 -9 -6 -13 -5 -13 4 0 9 -3 10 -8 4 -4 -5 -22 -15 -40 -22 -31
-11 -34 -10 -42 13 -11 28 7 69 100 229 90 154 100 173 100 190 0 8 6 18 13
21 8 3 14 20 15 39 1 33 0 34 -23 23 -14 -6 -25 -18 -25 -25 0 -8 -4 -12 -9
-9 -5 3 -23 -10 -40 -29 -17 -19 -34 -35 -38 -35 -4 0 5 12 19 28 13 15 35 42
47 60 12 18 27 29 33 26 6 -4 8 -2 5 3 -4 6 17 50 47 97 108 173 149 350 112
496 -62 249 -290 512 -520 601 -84 32 -204 58 -278 60 -29 1 -41 4 -25 6 15 2
25 9 22 14 -4 5 -1 9 5 9 6 0 8 5 5 10 -3 6 -1 10 5 10 18 0 70 53 63 64 -4 5
1 7 10 3 10 -4 17 -1 17 6 0 7 9 20 20 30 12 10 18 23 14 30 -4 6 -4 9 0 6 8
-7 56 36 56 50 0 5 7 14 15 21 8 7 15 25 15 40 0 20 6 29 21 33 18 5 19 8 7
27 -9 14 -10 23 -3 28 13 8 11 50 -2 63 -42 42 -264 72 -334 46z m621 -1880
c0 -2 -15 -16 -32 -33 l-33 -29 29 33 c28 30 36 37 36 29z"/>
<path d="M5545 4430 c-3 -5 -13 -6 -23 -3 -14 5 -15 3 -4 -8 10 -11 15 -10 29
4 10 9 14 17 11 17 -4 0 -9 -4 -13 -10z"/>
<path d="M1560 4139 c0 -5 5 -7 10 -4 6 3 10 8 10 11 0 2 -4 4 -10 4 -5 0 -10
-5 -10 -11z"/>
<path d="M1198 4035 c-3 -50 -3 -50 -36 -48 l-33 1 20 -31 c12 -19 27 -31 37
-29 9 2 25 -5 37 -15 20 -18 20 -18 14 6 -6 23 -6 23 16 4 12 -10 31 -25 42
-33 17 -13 17 -12 -3 14 -12 15 -24 44 -28 63 -5 25 -9 31 -15 21 -6 -9 -9 -7
-9 9 0 12 4 23 9 25 4 2 12 14 16 28 7 24 7 24 -9 5 -16 -20 -16 -20 -35 5
l-20 25 -3 -50z"/>
<path d="M1291 3975 c-1 -23 25 -65 40 -65 6 0 2 12 -9 28 -10 15 -22 34 -25
42 -4 11 -6 9 -6 -5z"/>
<path d="M1060 3961 c0 -10 9 -29 21 -42 l21 -24 -5 23 c-3 12 -1 20 4 16 17
-10 9 19 -8 32 -25 18 -33 17 -33 -5z"/>
<path d="M1414 2979 c-8 -14 11 -33 25 -25 6 4 11 14 11 22 0 16 -26 19 -36 3z"/>
</g>
</svg>
